<svg width="29" height="29" viewBox="0 0 29 29" fill="none" xmlns="http://www.w3.org/2000/svg">
<rect width="29" height="29" rx="4" fill="white" fill-opacity="0.2"/>
<path d="M17.694 7.06603C17.6938 7.34773 17.5817 7.6178 17.3823 7.81687L11.948 13.2512C11.7835 13.4156 11.653 13.6109 11.564 13.8258C11.475 14.0406 11.4292 14.2709 11.4292 14.5035C11.4292 14.7361 11.475 14.9664 11.564 15.1813C11.653 15.3962 11.7835 15.5914 11.948 15.7559L17.3753 21.1831C17.5688 21.3835 17.6759 21.6519 17.6735 21.9305C17.671 22.2091 17.5593 22.4756 17.3623 22.6726C17.1653 22.8695 16.8988 22.9813 16.6202 22.9837C16.3417 22.9861 16.0733 22.879 15.8729 22.6855L10.4456 17.2625C9.71588 16.5313 9.30603 15.5405 9.30603 14.5074C9.30603 13.4744 9.71588 12.4836 10.4456 11.7524L15.88 6.31449C16.0286 6.1658 16.2179 6.06453 16.4241 6.02349C16.6303 5.98246 16.844 6.0035 17.0382 6.08396C17.2324 6.16442 17.3984 6.30067 17.5151 6.47549C17.6318 6.6503 17.6941 6.85582 17.694 7.06603Z" fill="white"/>
</svg>
