<svg width="160" height="40" viewBox="0 0 160 40" fill="none" xmlns="http://www.w3.org/2000/svg">
<path fill-rule="evenodd" clip-rule="evenodd" d="M22.6292 40L40.3708 22.7875H40.3666C47.3583 16.0084 50.196 14.9791 63.529 14.9791H116.704L132.004 0H61.5125C43.6666 0 38.6208 1.7 28.1542 12.0583L0 40H22.6292ZM63.85 17.3708H114.421L100.396 31.3958H64.1125C57.4625 31.3958 55.9915 31.7084 52.6915 35.0084L47.7 40H26.7167L42.2291 24.4875C48.3209 18.4 50.421 17.3708 63.85 17.3708ZM160 0L119.892 40H95.0875L135.087 0H160ZM133.592 38.7333C134.425 39.5791 135.475 40 136.738 40C138 40 139.038 39.5792 139.859 38.7416C140.679 37.9041 141.087 36.8666 141.087 35.6334C141.087 34.4 140.675 33.3625 139.85 32.5167C139.025 31.6709 137.983 31.25 136.721 31.25C135.458 31.25 134.412 31.6709 133.583 32.5084C132.754 33.3459 132.337 34.3834 132.337 35.6166C132.337 36.85 132.754 37.8875 133.592 38.7333ZM134.113 33.0125C134.812 32.2959 135.679 31.9375 136.712 31.9375C137.75 31.9375 138.617 32.2959 139.312 33.0125C140.008 33.7291 140.359 34.6 140.359 35.625C140.359 36.65 140.008 37.5166 139.312 38.2291C138.613 38.9417 137.75 39.2958 136.712 39.2958C135.675 39.2958 134.809 38.9375 134.113 38.2209C133.417 37.5042 133.066 36.6375 133.066 35.6166C133.066 34.5958 133.417 33.7291 134.113 33.0125ZM135.859 38.0625V36.3459L135.863 36.35H136.842L137.671 38.0667H138.684L137.771 36.225C138.079 36.0833 138.296 35.9 138.425 35.6708C138.554 35.4417 138.617 35.0916 138.617 34.6208C138.617 34.15 138.458 33.7958 138.141 33.5625C137.825 33.325 137.35 33.2084 136.721 33.2084H134.896V38.0625H135.859ZM135.842 35.5916V33.9584H136.637C137.325 33.9584 137.667 34.2292 137.667 34.775C137.667 35.0625 137.6 35.2709 137.467 35.4C137.338 35.5292 137.121 35.5916 136.821 35.5916H135.842Z" fill="#EE0000"/>
</svg>
